<svg width="46" height="46" viewBox="0 0 46 46" fill="none" xmlns="http://www.w3.org/2000/svg">
<path d="M27 11.23C18.2916 11.23 11.1666 18.3391 11.1666 27.095C11.1666 35.0116 16.9616 41.5825 24.53 42.77V31.6866H20.5083V27.095H24.53V23.5958C24.53 19.6216 26.8891 17.4366 30.515 17.4366C32.2408 17.4366 34.0458 17.7375 34.0458 17.7375V21.6483H32.0508C30.0875 21.6483 29.47 22.8675 29.47 24.1183V27.095H33.8716L33.1591 31.6866H29.47V42.77C33.201 42.1807 36.5985 40.277 39.049 37.4026C41.4996 34.5281 42.8418 30.8722 42.8333 27.095C42.8333 18.3391 35.7083 11.23 27 11.23Z" fill="#DB8383"/>
</svg>
