<svg width="46" height="46" viewBox="0 0 46 46" fill="none" xmlns="http://www.w3.org/2000/svg">
<path d="M20.35 11.1666H33.65C38.7166 11.1666 42.8333 15.2833 42.8333 20.35V33.65C42.8333 36.0855 41.8658 38.4213 40.1436 40.1436C38.4213 41.8658 36.0855 42.8333 33.65 42.8333H20.35C15.2833 42.8333 11.1666 38.7166 11.1666 33.65V20.35C11.1666 17.9144 12.1342 15.5786 13.8564 13.8564C15.5786 12.1342 17.9144 11.1666 20.35 11.1666ZM20.0333 14.3333C18.5216 14.3333 17.0717 14.9338 16.0028 16.0028C14.9338 17.0717 14.3333 18.5216 14.3333 20.0333V33.9666C14.3333 37.1175 16.8825 39.6666 20.0333 39.6666H33.9666C35.4784 39.6666 36.9282 39.0661 37.9971 37.9971C39.0661 36.9282 39.6666 35.4784 39.6666 33.9666V20.0333C39.6666 16.8825 37.1175 14.3333 33.9666 14.3333H20.0333ZM35.3125 16.7083C35.8374 16.7083 36.3408 16.9168 36.7119 17.288C37.0831 17.6591 37.2916 18.1626 37.2916 18.6875C37.2916 19.2124 37.0831 19.7158 36.7119 20.0869C36.3408 20.4581 35.8374 20.6666 35.3125 20.6666C34.7875 20.6666 34.2841 20.4581 33.913 20.0869C33.5418 19.7158 33.3333 19.2124 33.3333 18.6875C33.3333 18.1626 33.5418 17.6591 33.913 17.288C34.2841 16.9168 34.7875 16.7083 35.3125 16.7083ZM27 19.0833C29.0996 19.0833 31.1132 19.9174 32.5979 21.402C34.0826 22.8867 34.9166 24.9003 34.9166 27C34.9166 29.0996 34.0826 31.1132 32.5979 32.5979C31.1132 34.0826 29.0996 34.9166 27 34.9166C24.9003 34.9166 22.8867 34.0826 21.402 32.5979C19.9174 31.1132 19.0833 29.0996 19.0833 27C19.0833 24.9003 19.9174 22.8867 21.402 21.402C22.8867 19.9174 24.9003 19.0833 27 19.0833ZM27 22.25C25.7402 22.25 24.532 22.7504 23.6412 23.6412C22.7504 24.532 22.25 25.7402 22.25 27C22.25 28.2597 22.7504 29.4679 23.6412 30.3587C24.532 31.2495 25.7402 31.75 27 31.75C28.2597 31.75 29.4679 31.2495 30.3587 30.3587C31.2495 29.4679 31.75 28.2597 31.75 27C31.75 25.7402 31.2495 24.532 30.3587 23.6412C29.4679 22.7504 28.2597 22.25 27 22.25Z" fill="#DB8383"/>
</svg>
