<svg width="46" height="46" viewBox="0 0 46 46" fill="none" xmlns="http://www.w3.org/2000/svg">
<path d="M38.0833 12.75C38.9232 12.75 39.7286 13.0836 40.3225 13.6775C40.9164 14.2714 41.25 15.0768 41.25 15.9167V38.0833C41.25 38.9232 40.9164 39.7286 40.3225 40.3225C39.7286 40.9164 38.9232 41.25 38.0833 41.25H15.9167C15.0768 41.25 14.2714 40.9164 13.6775 40.3225C13.0836 39.7286 12.75 38.9232 12.75 38.0833V15.9167C12.75 15.0768 13.0836 14.2714 13.6775 13.6775C14.2714 13.0836 15.0768 12.75 15.9167 12.75H38.0833ZM37.2917 37.2917V28.9C37.2917 27.531 36.7479 26.2182 35.7799 25.2502C34.8118 24.2822 33.499 23.7383 32.13 23.7383C30.7842 23.7383 29.2167 24.5617 28.4567 25.7967V24.0392H24.0392V37.2917H28.4567V29.4858C28.4567 28.2667 29.4383 27.2692 30.6575 27.2692C31.2454 27.2692 31.8092 27.5027 32.2249 27.9184C32.6406 28.3341 32.8742 28.8979 32.8742 29.4858V37.2917H37.2917ZM18.8933 21.5533C19.5988 21.5533 20.2754 21.2731 20.7742 20.7742C21.2731 20.2754 21.5533 19.5988 21.5533 18.8933C21.5533 17.4208 20.3658 16.2175 18.8933 16.2175C18.1837 16.2175 17.503 16.4994 17.0012 17.0012C16.4994 17.503 16.2175 18.1837 16.2175 18.8933C16.2175 20.3658 17.4208 21.5533 18.8933 21.5533ZM21.0942 37.2917V24.0392H16.7083V37.2917H21.0942Z" fill="#DB8383"/>
</svg>
