<svg width="46" height="46" viewBox="0 0 46 46" fill="none" xmlns="http://www.w3.org/2000/svg">
<path d="M23.8333 31.75L32.0508 27L23.8333 22.25V31.75ZM42.1366 19.3525C42.3425 20.0966 42.485 21.0941 42.58 22.3608C42.6908 23.6275 42.7383 24.72 42.7383 25.67L42.8333 27C42.8333 30.4675 42.58 33.0166 42.1366 34.6475C41.7408 36.0725 40.8225 36.9908 39.3975 37.3866C38.6533 37.5925 37.2916 37.735 35.2016 37.83C33.1433 37.9408 31.2591 37.9883 29.5175 37.9883L27 38.0833C20.3658 38.0833 16.2333 37.83 14.6025 37.3866C13.1775 36.9908 12.2591 36.0725 11.8633 34.6475C11.6575 33.9033 11.515 32.9058 11.42 31.6391C11.3091 30.3725 11.2616 29.28 11.2616 28.33L11.1666 27C11.1666 23.5325 11.42 20.9833 11.8633 19.3525C12.2591 17.9275 13.1775 17.0091 14.6025 16.6133C15.3466 16.4075 16.7083 16.265 18.7983 16.17C20.8566 16.0591 22.7408 16.0116 24.4825 16.0116L27 15.9166C33.6341 15.9166 37.7666 16.17 39.3975 16.6133C40.8225 17.0091 41.7408 17.9275 42.1366 19.3525Z" fill="#DB8383"/>
</svg>
